<svg xmlns="http://www.w3.org/2000/svg" version="1.1" xmlns:xlink="http://www.w3.org/1999/xlink" xmlns:svgjs="http://svgjs.dev/svgjs" width="1000" height="2024" viewBox="0 0 1000 2024"><g transform="matrix(1,0,0,1,0.6354012643309375,0.8194331983804659)"><svg viewBox="0 0 122 247" data-background-color="#ffffff" preserveAspectRatio="xMidYMid meet" height="2024" width="1000" xmlns="http://www.w3.org/2000/svg" xmlns:xlink="http://www.w3.org/1999/xlink"><g id="tight-bounds" transform="matrix(1,0,0,1,-0.07751895424837585,-0.09999999999999432)"><svg viewBox="0 0 122.1550379084967 247.2" height="247.2" width="122.1550379084967"><g><svg viewBox="0 0 122.15503790849672 247.20000000000005" height="247.2" width="122.1550379084967"><g><svg viewBox="0 0 122.15503790849672 247.20000000000005" height="247.20000000000005" width="122.15503790849672"><g id="textblocktransform"><svg viewBox="0 0 122.15503790849672 247.20000000000005" height="247.20000000000005" width="122.15503790849672" id="textblock"><g><svg viewBox="0 0 122.15503790849672 247.20000000000005" height="247.20000000000005" width="122.15503790849672"><rect width="122.15503790849672" height="247.20000000000005" x="0" y="0" opacity="1" fill="#160ef4" data-fill-palette-color="tertiary"></rect><g transform="matrix(1,0,0,1,23.607599999999998,23.607599999999998)"><svg width="74.93983790849673" viewBox="0.25 -35 17.200000762939453 45.900001525878906" height="199.98480000000004" data-palette-color="#111111"><path d="M9 10.9L9 10.9Q6.35 10.9 4.35 9.93 2.35 8.95 1.3 7.08 0.25 5.2 0.25 2.6L0.25 2.6Q0.25 0.25 1.18-2.6 2.1-5.45 4.55-8.45 7-11.45 11.5-14.2L11.5-14.2 11.5-29.75 4.25-29.75 4.25-35 17.45-35 17.45 1.7Q17.45 4.35 16.48 6.45 15.5 8.55 13.63 9.73 11.75 10.9 9 10.9ZM8.6 5.55L8.6 5.55Q9.45 5.55 10.1 5.1 10.75 4.65 11.1 3.83 11.45 3 11.45 1.85L11.45 1.85 11.45-8.1Q8.7-5.9 7.5-3.9 6.3-1.9 6.05-0.38 5.8 1.15 5.8 1.95L5.8 1.95Q5.8 3.7 6.65 4.63 7.5 5.55 8.6 5.55Z" opacity="1" transform="matrix(1,0,0,1,0,0)" fill="#111111" class="wordmark-text-0" data-fill-palette-color="quaternary" id="text-0"></path></svg></g></svg></g></svg></g></svg></g><g></g></svg></g><defs></defs></svg><rect width="122.1550379084967" height="247.2" fill="none" stroke="none" visibility="hidden"></rect></g></svg></g></svg>